%TF.GenerationSoftware,KiCad,Pcbnew,9.0.6-rc2*%
%TF.CreationDate,2026-01-29T22:58:21-08:00*%
%TF.ProjectId,hoja-dongle,686f6a61-2d64-46f6-9e67-6c652e6b6963,rev?*%
%TF.SameCoordinates,Original*%
%TF.FileFunction,Profile,NP*%
%FSLAX46Y46*%
G04 Gerber Fmt 4.6, Leading zero omitted, Abs format (unit mm)*
G04 Created by KiCad (PCBNEW 9.0.6-rc2) date 2026-01-29 22:58:21*
%MOMM*%
%LPD*%
G01*
G04 APERTURE LIST*
%TA.AperFunction,Profile*%
%ADD10C,0.100000*%
%TD*%
%TA.AperFunction,Profile*%
%ADD11C,0.150000*%
%TD*%
%TA.AperFunction,Profile*%
%ADD12C,0.010000*%
%TD*%
G04 APERTURE END LIST*
D10*
X126880000Y-28270000D02*
G75*
G02*
X124380000Y-28270000I-1250000J0D01*
G01*
X124380000Y-28270000D02*
G75*
G02*
X126880000Y-28270000I1250000J0D01*
G01*
D11*
X129900000Y-64700000D02*
G75*
G02*
X124900000Y-69700000I-5000000J0D01*
G01*
X104900000Y-69700000D02*
G75*
G02*
X99900000Y-64700000I0J5000000D01*
G01*
X99900000Y-64700000D02*
X99900000Y-30700000D01*
X129900000Y-30700000D02*
X129900000Y-64700000D01*
X99900000Y-30700000D02*
G75*
G02*
X104900000Y-25700000I5000000J0D01*
G01*
D10*
X105400000Y-65950000D02*
G75*
G02*
X102400000Y-65950000I-1500000J0D01*
G01*
X102400000Y-65950000D02*
G75*
G02*
X105400000Y-65950000I1500000J0D01*
G01*
X127400000Y-65950000D02*
G75*
G02*
X124400000Y-65950000I-1500000J0D01*
G01*
X124400000Y-65950000D02*
G75*
G02*
X127400000Y-65950000I1500000J0D01*
G01*
X105480000Y-28270000D02*
G75*
G02*
X102980000Y-28270000I-1250000J0D01*
G01*
X102980000Y-28270000D02*
G75*
G02*
X105480000Y-28270000I1250000J0D01*
G01*
D11*
X124900000Y-25700000D02*
G75*
G02*
X129900000Y-30700000I0J-5000000D01*
G01*
X124900000Y-69700000D02*
X104900000Y-69700000D01*
X104900000Y-25700000D02*
X124900000Y-25700000D01*
D12*
%TO.C,J2*%
X110310000Y-32170000D02*
X110310000Y-33170000D01*
X110910000Y-33170000D02*
X110910000Y-32480000D01*
X110930000Y-32470001D02*
X111210000Y-32470000D01*
X111210000Y-31870000D02*
X110610000Y-31870000D01*
X118650000Y-31870000D02*
X119250000Y-31870000D01*
X118930000Y-32470001D02*
X118650000Y-32470000D01*
X118950000Y-33170000D02*
X118950000Y-32490000D01*
X119550000Y-32170000D02*
X119550000Y-33170000D01*
X110310000Y-32170000D02*
G75*
G02*
X110610000Y-31870000I300000J0D01*
G01*
X110610000Y-33470000D02*
G75*
G02*
X110310000Y-33170000I0J300000D01*
G01*
X110910000Y-32480000D02*
G75*
G02*
X110930000Y-32470000I15000J-5000D01*
G01*
X110910000Y-33170000D02*
G75*
G02*
X110610000Y-33470000I-300000J0D01*
G01*
X111210000Y-31870000D02*
G75*
G02*
X111510000Y-32170000I0J-300000D01*
G01*
X111510000Y-32170000D02*
G75*
G02*
X111210000Y-32470000I-300000J0D01*
G01*
X118350000Y-32170000D02*
G75*
G02*
X118650000Y-31870000I300000J0D01*
G01*
X118650000Y-32470000D02*
G75*
G02*
X118350000Y-32170000I0J300000D01*
G01*
X118930000Y-32470001D02*
G75*
G02*
X118950000Y-32490000I1J-19999D01*
G01*
X119250000Y-31870000D02*
G75*
G02*
X119550000Y-32170000I0J-300000D01*
G01*
X119250000Y-33470000D02*
G75*
G02*
X118950000Y-33170000I0J300000D01*
G01*
X119550000Y-33170000D02*
G75*
G02*
X119250000Y-33470000I-300000J0D01*
G01*
%TD*%
M02*
