M48
; DRILL file {KiCad 9.0.6-rc2} date 2026-01-29T22:58:34-0800
; FORMAT={-:-/ absolute / metric / decimal}
; #@! TF.CreationDate,2026-01-29T22:58:34-08:00
; #@! TF.GenerationSoftware,Kicad,Pcbnew,9.0.6-rc2
; #@! TF.FileFunction,Plated,1,2,PTH
FMAT,2
METRIC
; #@! TA.AperFunction,Plated,PTH,ViaDrill
T1C0.250
; #@! TA.AperFunction,Plated,PTH,ComponentDrill
T2C0.250
; #@! TA.AperFunction,Plated,PTH,ViaDrill
T3C0.300
; #@! TA.AperFunction,Plated,PTH,ComponentDrill
T4C0.600
; #@! TA.AperFunction,Plated,PTH,ComponentDrill
T5C0.800
%
G90
G05
T1
X102.39Y-47.41
X102.47Y-42.14
X105.64Y-42.185
X105.64Y-47.585
X105.77Y-37.66
X108.91Y-42.14
X118.662Y-45.855
X119.262Y-45.855
T2
X112.075Y-43.98
X112.075Y-45.355
X112.075Y-46.73
X113.45Y-43.98
X113.45Y-45.355
X113.45Y-46.73
X114.825Y-43.98
X114.825Y-45.355
X114.825Y-46.73
T3
X103.31Y-49.16
X104.26Y-52.31
X104.47Y-38.95
X106.45Y-51.48
X106.626Y-41.404
X107.1Y-46.78
X107.18Y-48.4
X107.25Y-34.9
X107.689Y-46.272
X107.89Y-37.84
X107.93Y-49.26
X108.22Y-32.37
X108.49Y-30.36
X108.7Y-50.07
X108.806Y-45.506
X110.32Y-37.71
X111.2Y-51.415
X111.27Y-45.55
X111.45Y-34.5
X111.86Y-51.83
X111.89Y-55.56
X112.49Y-50.58
X112.493Y-34.295
X113.1Y-28.25
X113.34Y-29.3
X113.34Y-34.3
X113.46Y-30.074
X113.85Y-49.87
X113.86Y-47.52
X114.0Y-28.26
X114.25Y-40.94
X114.25Y-43.205
X114.38Y-34.39
X114.515Y-50.92
X114.81Y-30.96
X114.911Y-36.207
X115.45Y-34.41
X115.58Y-30.99
X115.6Y-45.88
X115.89Y-28.22
X116.44Y-29.822
X116.55Y-34.43
X116.6Y-55.61
X116.68Y-30.426
X117.31Y-50.53
X117.67Y-38.32
X117.9Y-52.03
X117.92Y-55.14
X118.15Y-35.92
X118.19Y-42.52
X118.72Y-48.45
X120.353Y-41.097
X120.45Y-30.32
X120.71Y-37.18
X121.54Y-49.23
X123.92Y-57.24
X124.04Y-53.07
X124.37Y-39.84
X124.58Y-58.68
X124.61Y-50.09
X124.7Y-51.11
X124.86Y-40.45
X125.15Y-52.33
X127.18Y-35.95
X127.64Y-52.27
X127.69Y-48.02
X127.69Y-50.0
X127.83Y-31.22
X128.07Y-35.31
T4
X110.61Y-32.66
X119.25Y-32.67
T5
X128.23Y-40.18
X128.23Y-42.18
X128.23Y-44.18
X128.23Y-46.18
T4
G00X110.61Y-28.77
M15
G01X110.61Y-27.47
M16
G05
G00X119.25Y-28.77
M15
G01X119.25Y-27.47
M16
G05
M30
