%TF.GenerationSoftware,KiCad,Pcbnew,9.0.6-rc2*%
%TF.CreationDate,2026-01-29T22:58:21-08:00*%
%TF.ProjectId,hoja-dongle,686f6a61-2d64-46f6-9e67-6c652e6b6963,rev?*%
%TF.SameCoordinates,Original*%
%TF.FileFunction,Paste,Top*%
%TF.FilePolarity,Positive*%
%FSLAX46Y46*%
G04 Gerber Fmt 4.6, Leading zero omitted, Abs format (unit mm)*
G04 Created by KiCad (PCBNEW 9.0.6-rc2) date 2026-01-29 22:58:21*
%MOMM*%
%LPD*%
G01*
G04 APERTURE LIST*
G04 Aperture macros list*
%AMRoundRect*
0 Rectangle with rounded corners*
0 $1 Rounding radius*
0 $2 $3 $4 $5 $6 $7 $8 $9 X,Y pos of 4 corners*
0 Add a 4 corners polygon primitive as box body*
4,1,4,$2,$3,$4,$5,$6,$7,$8,$9,$2,$3,0*
0 Add four circle primitives for the rounded corners*
1,1,$1+$1,$2,$3*
1,1,$1+$1,$4,$5*
1,1,$1+$1,$6,$7*
1,1,$1+$1,$8,$9*
0 Add four rect primitives between the rounded corners*
20,1,$1+$1,$2,$3,$4,$5,0*
20,1,$1+$1,$4,$5,$6,$7,0*
20,1,$1+$1,$6,$7,$8,$9,0*
20,1,$1+$1,$8,$9,$2,$3,0*%
%AMFreePoly0*
4,1,18,-0.437500,0.050000,-0.433694,0.069134,-0.422855,0.085355,-0.406634,0.096194,-0.387500,0.100000,0.387500,0.100000,0.437500,0.050000,0.437500,-0.050000,0.433694,-0.069134,0.422855,-0.085355,0.406634,-0.096194,0.387500,-0.100000,-0.387500,-0.100000,-0.406634,-0.096194,-0.422855,-0.085355,-0.433694,-0.069134,-0.437500,-0.050000,-0.437500,0.050000,-0.437500,0.050000,$1*%
%AMFreePoly1*
4,1,18,-0.437500,0.050000,-0.433694,0.069134,-0.422855,0.085355,-0.406634,0.096194,-0.387500,0.100000,0.387500,0.100000,0.406634,0.096194,0.422855,0.085355,0.433694,0.069134,0.437500,0.050000,0.437500,-0.050000,0.387500,-0.100000,-0.387500,-0.100000,-0.406634,-0.096194,-0.422855,-0.085355,-0.433694,-0.069134,-0.437500,-0.050000,-0.437500,0.050000,-0.437500,0.050000,$1*%
%AMFreePoly2*
4,1,18,-0.100000,0.387500,-0.050000,0.437500,0.050000,0.437500,0.069134,0.433694,0.085355,0.422855,0.096194,0.406634,0.100000,0.387500,0.100000,-0.387500,0.096194,-0.406634,0.085355,-0.422855,0.069134,-0.433694,0.050000,-0.437500,-0.050000,-0.437500,-0.069134,-0.433694,-0.085355,-0.422855,-0.096194,-0.406634,-0.100000,-0.387500,-0.100000,0.387500,-0.100000,0.387500,$1*%
%AMFreePoly3*
4,1,18,-0.100000,0.387500,-0.096194,0.406634,-0.085355,0.422855,-0.069134,0.433694,-0.050000,0.437500,0.050000,0.437500,0.100000,0.387500,0.100000,-0.387500,0.096194,-0.406634,0.085355,-0.422855,0.069134,-0.433694,0.050000,-0.437500,-0.050000,-0.437500,-0.069134,-0.433694,-0.085355,-0.422855,-0.096194,-0.406634,-0.100000,-0.387500,-0.100000,0.387500,-0.100000,0.387500,$1*%
%AMFreePoly4*
4,1,18,-0.437500,0.050000,-0.433694,0.069134,-0.422855,0.085355,-0.406634,0.096194,-0.387500,0.100000,0.387500,0.100000,0.406634,0.096194,0.422855,0.085355,0.433694,0.069134,0.437500,0.050000,0.437500,-0.050000,0.433694,-0.069134,0.422855,-0.085355,0.406634,-0.096194,0.387500,-0.100000,-0.387500,-0.100000,-0.437500,-0.050000,-0.437500,0.050000,-0.437500,0.050000,$1*%
%AMFreePoly5*
4,1,18,-0.437500,0.050000,-0.387500,0.100000,0.387500,0.100000,0.406634,0.096194,0.422855,0.085355,0.433694,0.069134,0.437500,0.050000,0.437500,-0.050000,0.433694,-0.069134,0.422855,-0.085355,0.406634,-0.096194,0.387500,-0.100000,-0.387500,-0.100000,-0.406634,-0.096194,-0.422855,-0.085355,-0.433694,-0.069134,-0.437500,-0.050000,-0.437500,0.050000,-0.437500,0.050000,$1*%
%AMFreePoly6*
4,1,18,-0.100000,0.387500,-0.096194,0.406634,-0.085355,0.422855,-0.069134,0.433694,-0.050000,0.437500,0.050000,0.437500,0.069134,0.433694,0.085355,0.422855,0.096194,0.406634,0.100000,0.387500,0.100000,-0.387500,0.050000,-0.437500,-0.050000,-0.437500,-0.069134,-0.433694,-0.085355,-0.422855,-0.096194,-0.406634,-0.100000,-0.387500,-0.100000,0.387500,-0.100000,0.387500,$1*%
%AMFreePoly7*
4,1,18,-0.100000,0.387500,-0.096194,0.406634,-0.085355,0.422855,-0.069134,0.433694,-0.050000,0.437500,0.050000,0.437500,0.069134,0.433694,0.085355,0.422855,0.096194,0.406634,0.100000,0.387500,0.100000,-0.387500,0.096194,-0.406634,0.085355,-0.422855,0.069134,-0.433694,0.050000,-0.437500,-0.050000,-0.437500,-0.100000,-0.387500,-0.100000,0.387500,-0.100000,0.387500,$1*%
G04 Aperture macros list end*
%ADD10C,0.010000*%
%ADD11RoundRect,0.079500X0.079500X0.100500X-0.079500X0.100500X-0.079500X-0.100500X0.079500X-0.100500X0*%
%ADD12RoundRect,0.079500X0.100500X-0.079500X0.100500X0.079500X-0.100500X0.079500X-0.100500X-0.079500X0*%
%ADD13R,2.000000X1.000000*%
%ADD14R,1.000000X2.000000*%
%ADD15RoundRect,0.079500X-0.079500X-0.100500X0.079500X-0.100500X0.079500X0.100500X-0.079500X0.100500X0*%
%ADD16RoundRect,0.093750X-0.093750X0.156250X-0.093750X-0.156250X0.093750X-0.156250X0.093750X0.156250X0*%
%ADD17RoundRect,0.075000X-0.075000X0.250000X-0.075000X-0.250000X0.075000X-0.250000X0.075000X0.250000X0*%
%ADD18RoundRect,0.140000X0.140000X0.170000X-0.140000X0.170000X-0.140000X-0.170000X0.140000X-0.170000X0*%
%ADD19RoundRect,0.250000X0.250000X0.250000X-0.250000X0.250000X-0.250000X-0.250000X0.250000X-0.250000X0*%
%ADD20RoundRect,0.140000X-0.170000X0.140000X-0.170000X-0.140000X0.170000X-0.140000X0.170000X0.140000X0*%
%ADD21RoundRect,0.250000X-0.350000X0.450000X-0.350000X-0.450000X0.350000X-0.450000X0.350000X0.450000X0*%
%ADD22RoundRect,0.135000X-0.185000X0.135000X-0.185000X-0.135000X0.185000X-0.135000X0.185000X0.135000X0*%
%ADD23RoundRect,0.135000X-0.135000X-0.185000X0.135000X-0.185000X0.135000X0.185000X-0.135000X0.185000X0*%
%ADD24RoundRect,0.079500X-0.100500X0.079500X-0.100500X-0.079500X0.100500X-0.079500X0.100500X0.079500X0*%
%ADD25RoundRect,0.135000X0.185000X-0.135000X0.185000X0.135000X-0.185000X0.135000X-0.185000X-0.135000X0*%
%ADD26R,1.700000X0.700000*%
%ADD27RoundRect,0.250000X-0.457500X-0.445000X0.457500X-0.445000X0.457500X0.445000X-0.457500X0.445000X0*%
%ADD28R,0.370000X0.370000*%
%ADD29RoundRect,0.250000X0.475000X-0.250000X0.475000X0.250000X-0.475000X0.250000X-0.475000X-0.250000X0*%
%ADD30RoundRect,0.250000X-0.350000X0.350000X-0.350000X-0.350000X0.350000X-0.350000X0.350000X0.350000X0*%
%ADD31FreePoly0,270.000000*%
%ADD32RoundRect,0.050000X-0.050000X0.387500X-0.050000X-0.387500X0.050000X-0.387500X0.050000X0.387500X0*%
%ADD33FreePoly1,270.000000*%
%ADD34FreePoly2,270.000000*%
%ADD35RoundRect,0.050000X-0.387500X0.050000X-0.387500X-0.050000X0.387500X-0.050000X0.387500X0.050000X0*%
%ADD36FreePoly3,270.000000*%
%ADD37FreePoly4,270.000000*%
%ADD38FreePoly5,270.000000*%
%ADD39FreePoly6,270.000000*%
%ADD40FreePoly7,270.000000*%
%ADD41RoundRect,0.135000X0.135000X0.185000X-0.135000X0.185000X-0.135000X-0.185000X0.135000X-0.185000X0*%
%ADD42RoundRect,0.100000X-0.225000X-0.100000X0.225000X-0.100000X0.225000X0.100000X-0.225000X0.100000X0*%
%ADD43RoundRect,0.250000X0.250000X-0.250000X0.250000X0.250000X-0.250000X0.250000X-0.250000X-0.250000X0*%
%ADD44RoundRect,0.250000X-0.375000X-0.850000X0.375000X-0.850000X0.375000X0.850000X-0.375000X0.850000X0*%
%ADD45RoundRect,0.150000X0.350000X-1.250000X0.350000X1.250000X-0.350000X1.250000X-0.350000X-1.250000X0*%
%ADD46RoundRect,0.150000X-0.350000X1.250000X-0.350000X-1.250000X0.350000X-1.250000X0.350000X1.250000X0*%
%ADD47R,0.300000X0.850000*%
%ADD48RoundRect,0.218750X-0.218750X-0.256250X0.218750X-0.256250X0.218750X0.256250X-0.218750X0.256250X0*%
%ADD49RoundRect,0.140000X0.170000X-0.140000X0.170000X0.140000X-0.170000X0.140000X-0.170000X-0.140000X0*%
%ADD50R,0.500000X0.550000*%
%ADD51RoundRect,0.093750X0.093750X-0.156250X0.093750X0.156250X-0.093750X0.156250X-0.093750X-0.156250X0*%
%ADD52RoundRect,0.075000X0.075000X-0.250000X0.075000X0.250000X-0.075000X0.250000X-0.075000X-0.250000X0*%
%ADD53RoundRect,0.007200X-0.112800X0.292800X-0.112800X-0.292800X0.112800X-0.292800X0.112800X0.292800X0*%
G04 APERTURE END LIST*
D10*
%TO.C,U4*%
X123517499Y-35325000D02*
X123517499Y-35575000D01*
X123177499Y-35575000D01*
X123177499Y-35324999D01*
X123517499Y-35325000D01*
G36*
X123517499Y-35325000D02*
G01*
X123517499Y-35575000D01*
X123177499Y-35575000D01*
X123177499Y-35324999D01*
X123517499Y-35325000D01*
G37*
X123517499Y-36075000D02*
X123177499Y-36075001D01*
X123177499Y-35825000D01*
X123517499Y-35825000D01*
X123517499Y-36075000D01*
G36*
X123517499Y-36075000D02*
G01*
X123177499Y-36075001D01*
X123177499Y-35825000D01*
X123517499Y-35825000D01*
X123517499Y-36075000D01*
G37*
X124777499Y-36450000D02*
X123717499Y-36450000D01*
X123717499Y-34950000D01*
X124777499Y-34950000D01*
X124777499Y-36450000D01*
G36*
X124777499Y-36450000D02*
G01*
X123717499Y-36450000D01*
X123717499Y-34950000D01*
X124777499Y-34950000D01*
X124777499Y-36450000D01*
G37*
X126037499Y-36450000D02*
X124977499Y-36450000D01*
X124977499Y-34950000D01*
X126037499Y-34950000D01*
X126037499Y-36450000D01*
G36*
X126037499Y-36450000D02*
G01*
X124977499Y-36450000D01*
X124977499Y-34950000D01*
X126037499Y-34950000D01*
X126037499Y-36450000D01*
G37*
X126577499Y-35575000D02*
X126237499Y-35575000D01*
X126237499Y-35325000D01*
X126577499Y-35324999D01*
X126577499Y-35575000D01*
G36*
X126577499Y-35575000D02*
G01*
X126237499Y-35575000D01*
X126237499Y-35325000D01*
X126577499Y-35324999D01*
X126577499Y-35575000D01*
G37*
X126577499Y-36075001D02*
X126237499Y-36075000D01*
X126237499Y-35825000D01*
X126577499Y-35825000D01*
X126577499Y-36075001D01*
G36*
X126577499Y-36075001D02*
G01*
X126237499Y-36075000D01*
X126237499Y-35825000D01*
X126577499Y-35825000D01*
X126577499Y-36075001D01*
G37*
%TD*%
D11*
%TO.C,R13*%
X120050000Y-39740000D03*
X119360000Y-39740000D03*
%TD*%
D12*
%TO.C,C12*%
X114250000Y-40365000D03*
X114250000Y-39675000D03*
%TD*%
D13*
%TO.C,P1*%
X121650000Y-63835000D03*
X121650000Y-62335000D03*
X121650000Y-60835000D03*
X121650000Y-59335000D03*
X121650000Y-57835000D03*
X121650000Y-56335000D03*
X121650000Y-54835000D03*
D14*
X119400000Y-53535000D03*
X117900000Y-53535000D03*
X116400000Y-53535000D03*
X114900000Y-53534999D03*
X113400000Y-53535000D03*
X111900000Y-53535000D03*
X110400000Y-53535000D03*
D13*
X108150000Y-54835000D03*
X108150000Y-56335000D03*
X108150000Y-57835000D03*
X108150000Y-59335000D03*
X108150000Y-60835000D03*
X108150000Y-62335000D03*
X108150000Y-63835000D03*
%TD*%
D15*
%TO.C,C13*%
X118545000Y-44110000D03*
X119235000Y-44110000D03*
%TD*%
D11*
%TO.C,R7*%
X108885000Y-47430000D03*
X108195000Y-47430000D03*
%TD*%
D16*
%TO.C,U3*%
X111042501Y-35150000D03*
D17*
X110505001Y-35075000D03*
D16*
X109967501Y-35150000D03*
X109967501Y-36850000D03*
D17*
X110505001Y-36925000D03*
D16*
X111042501Y-36850000D03*
%TD*%
D11*
%TO.C,R15*%
X110375000Y-49880000D03*
X109685000Y-49880000D03*
%TD*%
D18*
%TO.C,C10*%
X108140000Y-45600000D03*
X107180000Y-45600000D03*
%TD*%
D19*
%TO.C,D1*%
X120167499Y-35020000D03*
X117667501Y-35020000D03*
%TD*%
D20*
%TO.C,C5*%
X118030000Y-46970000D03*
X118030000Y-47930000D03*
%TD*%
D21*
%TO.C,Y1*%
X102390000Y-43670000D03*
X102390000Y-45870000D03*
X104090000Y-45870000D03*
X104090000Y-43670000D03*
%TD*%
D11*
%TO.C,R17*%
X120695000Y-44570000D03*
X120005000Y-44570000D03*
%TD*%
D22*
%TO.C,R6*%
X107249999Y-33160002D03*
X107249999Y-34180000D03*
%TD*%
D23*
%TO.C,R9*%
X106280000Y-30390000D03*
X107300000Y-30390000D03*
%TD*%
D11*
%TO.C,C19*%
X108215000Y-43570000D03*
X107525000Y-43570000D03*
%TD*%
D24*
%TO.C,C8*%
X113850001Y-50455000D03*
X113850001Y-51145000D03*
%TD*%
D12*
%TO.C,C18*%
X116250000Y-40805000D03*
X116250000Y-40115000D03*
%TD*%
D25*
%TO.C,R3*%
X103110000Y-34429999D03*
X103110000Y-33410001D03*
%TD*%
D24*
%TO.C,C14*%
X113150000Y-50455000D03*
X113150000Y-51145000D03*
%TD*%
D26*
%TO.C,L4*%
X120660000Y-46660000D03*
X120660000Y-48060000D03*
%TD*%
D27*
%TO.C,C3*%
X119157499Y-38330000D03*
X121862499Y-38330000D03*
%TD*%
D28*
%TO.C,L1*%
X103315000Y-51085000D03*
X103985000Y-51085000D03*
X103985000Y-50415000D03*
X103315000Y-50415000D03*
%TD*%
D25*
%TO.C,R2*%
X103110000Y-32569999D03*
X103110000Y-31550001D03*
%TD*%
%TO.C,R5*%
X107250000Y-32320000D03*
X107250000Y-31300002D03*
%TD*%
D29*
%TO.C,C4*%
X121937499Y-36399998D03*
X121937499Y-34500000D03*
%TD*%
D11*
%TO.C,R18*%
X120695000Y-45270000D03*
X120005000Y-45270000D03*
%TD*%
D30*
%TO.C,U5*%
X114149999Y-44655000D03*
X112749999Y-44655000D03*
X114149999Y-46055000D03*
X112749999Y-46055000D03*
D31*
X116249999Y-41917499D03*
D32*
X115849999Y-41917500D03*
X115449999Y-41917500D03*
X115049999Y-41917500D03*
X114650000Y-41917500D03*
X114249999Y-41917500D03*
X113849999Y-41917500D03*
X113449999Y-41917499D03*
X113049999Y-41917500D03*
X112649999Y-41917500D03*
X112249998Y-41917500D03*
X111849999Y-41917500D03*
X111449999Y-41917500D03*
X111049999Y-41917500D03*
D33*
X110649999Y-41917499D03*
D34*
X110012498Y-42555000D03*
D35*
X110012499Y-42955000D03*
X110012499Y-43355000D03*
X110012499Y-43755000D03*
X110012499Y-44154999D03*
X110012499Y-44555000D03*
X110012499Y-44955000D03*
X110012498Y-45355000D03*
X110012499Y-45755000D03*
X110012499Y-46155000D03*
X110012499Y-46555001D03*
X110012499Y-46955000D03*
X110012499Y-47355000D03*
X110012499Y-47755000D03*
D36*
X110012498Y-48155000D03*
D37*
X110649999Y-48792501D03*
D32*
X111049999Y-48792500D03*
X111449999Y-48792500D03*
X111849999Y-48792500D03*
X112249998Y-48792500D03*
X112649999Y-48792500D03*
X113049999Y-48792500D03*
X113449999Y-48792501D03*
X113849999Y-48792500D03*
X114249999Y-48792500D03*
X114650000Y-48792500D03*
X115049999Y-48792500D03*
X115449999Y-48792500D03*
X115849999Y-48792500D03*
D38*
X116249999Y-48792501D03*
D39*
X116887500Y-48155000D03*
D35*
X116887499Y-47755000D03*
X116887499Y-47355000D03*
X116887499Y-46955000D03*
X116887499Y-46555001D03*
X116887499Y-46155000D03*
X116887499Y-45755000D03*
X116887500Y-45355000D03*
X116887499Y-44955000D03*
X116887499Y-44555000D03*
X116887499Y-44154999D03*
X116887499Y-43755000D03*
X116887499Y-43355000D03*
X116887499Y-42955000D03*
D40*
X116887500Y-42555000D03*
%TD*%
D15*
%TO.C,R11*%
X123282499Y-38000000D03*
X123972499Y-38000000D03*
%TD*%
D29*
%TO.C,C11*%
X127817499Y-34129999D03*
X127817499Y-32230001D03*
%TD*%
D15*
%TO.C,C21*%
X118540000Y-43400000D03*
X119230000Y-43400000D03*
%TD*%
D41*
%TO.C,R10*%
X108149999Y-44670000D03*
X107130001Y-44670000D03*
%TD*%
D15*
%TO.C,R14*%
X116365000Y-51780000D03*
X117055000Y-51780000D03*
%TD*%
D42*
%TO.C,Q1*%
X104230000Y-34900000D03*
X104230001Y-35550000D03*
X104230000Y-36200000D03*
X106130000Y-36200000D03*
X106129999Y-35550000D03*
X106130000Y-34900000D03*
%TD*%
D18*
%TO.C,C9*%
X119010000Y-49550000D03*
X118050000Y-49550000D03*
%TD*%
D25*
%TO.C,R8*%
X117380000Y-37409999D03*
X117380000Y-36390001D03*
%TD*%
D43*
%TO.C,D3*%
X121907499Y-33000000D03*
X121907499Y-30500002D03*
%TD*%
D24*
%TO.C,C17*%
X115850000Y-49955000D03*
X115850000Y-50645000D03*
%TD*%
D11*
%TO.C,R19*%
X110825000Y-40240000D03*
X110135000Y-40240000D03*
%TD*%
D42*
%TO.C,Q2*%
X104230000Y-32100000D03*
X104230001Y-32750000D03*
X104230000Y-33400000D03*
X106130000Y-33400000D03*
X106129999Y-32750000D03*
X106130000Y-32100000D03*
%TD*%
D44*
%TO.C,L3*%
X123802499Y-31850000D03*
X125952499Y-31850000D03*
%TD*%
D11*
%TO.C,C16*%
X108885001Y-48150000D03*
X108195001Y-48150000D03*
%TD*%
D45*
%TO.C,SW3*%
X124150000Y-60900000D03*
X124150000Y-55100000D03*
X128150000Y-60900000D03*
X128150000Y-55100000D03*
%TD*%
D46*
%TO.C,SW2*%
X105650000Y-55100000D03*
X105650000Y-60900000D03*
X101650000Y-55100000D03*
X101650000Y-60900000D03*
%TD*%
D47*
%TO.C,J2*%
X117550000Y-33345000D03*
X117049999Y-33345000D03*
X116550000Y-33345000D03*
X116050001Y-33345000D03*
X115550000Y-33345000D03*
X115050000Y-33345000D03*
X114550000Y-33345001D03*
X114050000Y-33345000D03*
X113550001Y-33345000D03*
X113050000Y-33345000D03*
X112550000Y-33345000D03*
X112050000Y-33345001D03*
X112300000Y-31945000D03*
X112800000Y-31945000D03*
X113300000Y-31945001D03*
X113800000Y-31945000D03*
X114300000Y-31945000D03*
X114800001Y-31945000D03*
X115300000Y-31945000D03*
X115799999Y-31945000D03*
X116300000Y-31945000D03*
X116800000Y-31945000D03*
X117300000Y-31945001D03*
X117800000Y-31945000D03*
%TD*%
D48*
%TO.C,L5*%
X107592500Y-51460000D03*
X109167500Y-51460000D03*
%TD*%
D11*
%TO.C,R21*%
X109415000Y-40820000D03*
X108725000Y-40820000D03*
%TD*%
D22*
%TO.C,R1*%
X103110000Y-35270001D03*
X103110000Y-36289999D03*
%TD*%
D20*
%TO.C,C7*%
X118950000Y-46880000D03*
X118950000Y-47840000D03*
%TD*%
D22*
%TO.C,R4*%
X107249999Y-35500001D03*
X107249999Y-36519999D03*
%TD*%
D12*
%TO.C,C15*%
X112240000Y-40355000D03*
X112240000Y-39665000D03*
%TD*%
D49*
%TO.C,C1*%
X105640000Y-43850001D03*
X105640000Y-42890001D03*
%TD*%
D12*
%TO.C,R20*%
X111530000Y-40235000D03*
X111530000Y-39545000D03*
%TD*%
D18*
%TO.C,C6*%
X125717499Y-38110000D03*
X124757499Y-38110000D03*
%TD*%
D50*
%TO.C,SW1*%
X123850000Y-45275000D03*
X124650000Y-45275000D03*
X123850000Y-42625000D03*
X124650000Y-42625000D03*
%TD*%
D28*
%TO.C,L2*%
X125815000Y-51085000D03*
X126485000Y-51085000D03*
X126485000Y-50415000D03*
X125815000Y-50415000D03*
%TD*%
D16*
%TO.C,U1*%
X115457500Y-35150000D03*
D17*
X114920000Y-35075000D03*
D16*
X114382500Y-35150000D03*
X114382500Y-36850000D03*
D17*
X114920000Y-36925000D03*
D16*
X115457500Y-36850000D03*
%TD*%
D19*
%TO.C,D2*%
X106969999Y-37920000D03*
X104470001Y-37920000D03*
%TD*%
D24*
%TO.C,C20*%
X116550000Y-49955001D03*
X116550000Y-50645001D03*
%TD*%
D11*
%TO.C,R12*%
X120505000Y-49440000D03*
X119815000Y-49440000D03*
%TD*%
D51*
%TO.C,U2*%
X112180000Y-36850000D03*
D52*
X112717500Y-36925000D03*
D51*
X113255000Y-36850000D03*
X113255000Y-35150000D03*
D52*
X112717500Y-35075000D03*
D51*
X112180000Y-35150000D03*
%TD*%
D24*
%TO.C,R16*%
X115140000Y-49955000D03*
X115140000Y-50645000D03*
%TD*%
D53*
%TO.C,U4*%
X125877499Y-34300000D03*
X125377499Y-34300000D03*
X124877499Y-34300001D03*
X124377499Y-34300000D03*
X123877499Y-34300000D03*
X123877499Y-37100000D03*
X124377499Y-37100000D03*
X124877499Y-37099999D03*
X125377499Y-37100000D03*
X125877499Y-37100000D03*
%TD*%
D12*
%TO.C,R22*%
X123380000Y-53095000D03*
X123380000Y-52405000D03*
%TD*%
D20*
%TO.C,C2*%
X105640000Y-45880000D03*
X105640000Y-46840000D03*
%TD*%
M02*
